<svg xmlns="http://www.w3.org/2000/svg" width="1920" height="937" viewBox="0 0 1920 937"><defs><style>.cls-1{fill:#302c4f;stroke:#f2a05e;stroke-miterlimit:10;}</style></defs><title>page copy</title><g id="Layer_1" data-name="Layer 1"><path class="cls-1" d="M1559.67,121H658.48a6.35,6.35,0,0,1-6.35-6.36V54.5a22.06,22.06,0,0,0-22-22h-259a22.06,22.06,0,0,0-22,22v100a11.52,11.52,0,0,0,.25,2.43V876.8a27.28,27.28,0,0,0,27.2,27.2H1559.67a27.29,27.29,0,0,0,27.21-27.2V148.2A27.29,27.29,0,0,0,1559.67,121Z"/></g></svg>
